<svg width="64" height="64" viewBox="0 0 64 64" fill="none" xmlns="http://www.w3.org/2000/svg">
    <path d="M9.19035 25.0012C9.19035 25.0012 10.0704 17.2912 15.6504 13.2112C21.2304 9.13116 25.0704 7.79116 33.2304 8.29116C41.3904 8.79116 44.8104 13.5412 46.8104 15.6212C48.8104 17.7012 50.0004 24.2212 50.0004 24.2212C50.0004 24.2212 51.4204 24.6012 51.4604 25.4712C51.5004 26.3412 51.5404 27.4712 51.5404 27.4712C52.2644 27.528 52.9925 27.5012 53.7104 27.3912C53.7104 27.2212 53.1304 14.7212 53.1304 14.7212C53.1304 14.7212 50.8403 13.9712 50.7603 12.2212C50.6803 10.4712 52.1404 8.84116 54.5904 9.64116C57.0404 10.4412 55.3004 14.2212 55.3004 14.2212C55.3004 14.2212 56.8004 28.7212 56.6804 29.3012C56.5604 29.8812 55.9704 30.0512 55.6804 30.1312C55.3904 30.2112 51.6804 29.9212 51.6804 29.9212C51.765 30.926 51.6941 31.9379 51.4704 32.9212C51.1404 33.4612 49.4704 33.8012 49.4704 33.8012C49.4531 34.9428 49.2952 36.0781 49.0004 37.1812C48.8417 37.985 48.4994 38.7413 48.0004 39.3912C48.0004 39.3912 50.5404 45.8512 50.5004 46.2212C50.4604 46.5912 44.6304 52.0512 37.7504 54.6012C30.8704 57.1512 23.0004 55.3912 18.7504 52.8912C14.5004 50.3912 11.4604 47.0212 11.2504 46.3912C11.0404 45.7612 13.2504 41.0612 13.2504 41.0612C13.2504 41.0612 12.1304 38.7312 11.4604 37.0612C11.0745 36.1066 10.7407 35.1318 10.4604 34.1412C10.4604 34.1412 8.00035 33.5112 7.78035 32.9312C7.56035 32.3512 7.16035 26.0512 7.45035 25.5512C7.74035 25.0512 8.82035 25.0012 9.19035 25.0012Z" fill="black"/>
    <path d="M9.15028 26.5909C9.15028 26.5909 10.6903 26.4209 10.7303 26.7209C10.8561 28.6923 10.8561 30.6696 10.7303 32.6409C10.5433 32.6964 10.3472 32.7143 10.1533 32.6937C9.95938 32.6731 9.77144 32.6144 9.60028 32.5209C9.44028 32.3409 8.86028 26.8409 9.15028 26.5909Z" fill="#D54F46"/>
    <path d="M48.6496 25.5115C48.7696 25.3915 49.7296 25.6415 49.7796 25.8915C49.9045 27.8328 49.9045 29.7801 49.7796 31.7215C49.6197 31.8199 49.4403 31.8824 49.2539 31.9049C49.0674 31.9273 48.8783 31.9091 48.6996 31.8515C48.6096 31.7215 48.6096 25.5515 48.6496 25.5115Z" fill="#D54F46"/>
    <path d="M53.1905 10.6399C54.1405 10.2799 54.7305 11.0599 54.8605 12.0999C54.8896 12.3323 54.8554 12.5683 54.7614 12.7829C54.6675 12.9975 54.5173 13.1827 54.3267 13.319C54.1362 13.4553 53.9123 13.5375 53.6789 13.557C53.4454 13.5765 53.211 13.5326 53.0005 13.4299C52.731 13.298 52.5069 13.0887 52.3568 12.8289C52.2067 12.5691 52.1374 12.2704 52.1578 11.971C52.1782 11.6716 52.2873 11.3851 52.4712 11.148C52.6552 10.9109 52.9056 10.734 53.1905 10.6399Z" fill="#E6E4DB"/>
    <path d="M51.9403 28.2584C52.0703 28.2584 54.7303 28.2584 54.7303 28.0084C54.7303 27.7584 54.2303 19.5884 54.4803 19.3884C54.7303 19.1884 54.7703 19.4684 54.9003 19.7184C55.2892 22.7038 55.5129 25.7084 55.5703 28.7184C54.3775 28.9477 53.1565 28.9915 51.9503 28.8484C51.7803 28.7184 51.9403 28.2584 51.9403 28.2584Z" fill="#E6E4DB"/>
    <path d="M12.1904 25.1804C12.1904 25.1804 10.7704 25.3104 10.6504 25.1804C11.1675 22.1814 12.4448 19.3651 14.3604 17.0004C16.0031 14.8671 18.151 13.1762 20.6104 12.0804C20.6104 12.0804 20.6904 13.7104 20.9004 13.7904C21.9594 13.9017 23.0294 13.8443 24.0704 13.6204C24.2404 13.3704 23.8204 10.7004 23.9504 10.6204C24.5409 10.4212 25.1575 10.31 25.7804 10.2904C25.7943 11.6285 25.8911 12.9644 26.0704 14.2904C26.8036 14.4843 27.5639 14.5553 28.3204 14.5004C28.9397 14.5055 29.5473 14.3319 30.0704 14.0004C30.0704 13.8804 29.5304 10.0004 29.6504 10.0004C29.7886 9.96518 29.9289 9.93847 30.0704 9.92041C30.0704 9.92041 30.2804 13.4604 30.5304 13.4204C30.7804 13.3804 33.7004 13.3004 33.6604 12.9604C33.6204 12.6204 33.2004 9.71041 33.4504 9.75041C36.6459 10.077 39.6748 11.3358 42.1604 13.3704C46.0004 16.6404 48.0004 23.5904 47.9004 23.6804C47.6703 23.7815 47.433 23.865 47.1904 23.9304C47.1904 23.9304 41.7304 18.3104 36.5204 17.4704C31.3104 16.6304 27.0604 16.1004 21.6004 18.6004C18.1229 20.2608 14.9434 22.484 12.1904 25.1804Z" fill="#D0E6F3"/>
    <path d="M21.6104 11.6797C21.7804 11.5997 22.9404 11.1797 22.9404 11.1797C22.9404 11.1797 23.2704 12.6797 23.0704 12.7597C22.6701 12.8213 22.2652 12.8481 21.8604 12.8397L21.6104 11.6797Z" fill="#D54F46"/>
    <path d="M26.7305 10.0914C27.3932 10.0025 28.0628 9.97567 28.7305 10.0114C28.8347 11.175 28.8781 12.3433 28.8605 13.5114C28.3 13.6391 27.7238 13.6829 27.1505 13.6414C26.8894 12.4756 26.7486 11.286 26.7305 10.0914Z" fill="#D54F46"/>
    <path d="M31 9.89062C31.17 9.89062 32.46 9.89062 32.46 9.89062C32.5667 10.6356 32.6102 11.3883 32.59 12.1406C32.47 12.1406 31.34 12.2706 31.34 12.2706L31 9.89062Z" fill="#D54F46"/>
    <path d="M12.4399 27.0508C15.085 24.4949 18.0738 22.3206 21.3199 20.5908C25.4899 18.5908 30.8999 18.5108 34.6499 19.1308C38.3999 19.7508 41.7299 22.2108 44.0699 23.8408C46.4099 25.4708 46.6099 26.0508 46.6099 26.0508C46.5934 28.221 46.6902 30.3906 46.8999 32.5508C47.0997 32.9189 47.3524 33.2558 47.6499 33.5508C47.3271 35.1246 46.7709 36.6413 45.9999 38.0508C45.0653 39.9536 43.7637 41.6529 42.1699 43.0508C41.1293 43.7802 40.0363 44.432 38.8999 45.0008C38.8999 45.0008 36.0699 42.2508 35.8999 42.2108C35.7299 42.1708 35.0699 42.6708 35.1899 42.9208C35.3099 43.1708 38.3199 45.3408 38.0699 45.5008C35.3412 46.6154 32.4359 47.2351 29.4899 47.3308C25.117 47.2511 20.9129 45.629 17.6199 42.7508C15.3237 40.3082 13.5627 37.4131 12.4499 34.2508C12.3599 34.0008 12.3999 27.1408 12.4399 27.0508Z" fill="#2A4761"/>
    <path d="M22.5702 23.6797C23.0802 23.6797 23.5702 24.5997 23.1102 25.3497C22.6502 26.0997 20.3602 28.8897 20.5702 31.5197C20.6252 33.3048 21.3047 35.014 22.4902 36.3497C23.2402 37.1797 23.6602 37.0997 23.6602 37.4797C23.6602 37.8597 23.6602 37.8997 23.4102 37.9797C21.4618 38.3827 19.4332 38.0249 17.7402 36.9797C15.3602 35.3597 15.3202 31.7297 15.4502 30.4397C15.5802 29.1497 16.2302 23.8897 22.5702 23.6797Z" fill="black"/>
    <path d="M21.1499 24.7199C21.6099 24.6499 21.8999 25.0099 21.6899 25.1799C21.4799 25.3499 18.9799 28.1799 19.1099 31.1799C19.2399 34.1799 19.9999 35.5099 20.4799 35.9999C20.9599 36.4899 21.1899 36.7099 21.0599 36.8299C20.2969 36.7941 19.5538 36.5745 18.8939 36.1897C18.234 35.8049 17.6768 35.2664 17.2699 34.6199C16.0199 32.6199 16.8499 29.1599 17.5199 27.8299C18.1899 26.4999 19.1499 24.9999 21.1499 24.7199Z" fill="#E6E4DB"/>
    <path d="M40.53 22.6797C41.2713 22.9586 41.9217 23.436 42.41 24.0597C42.41 24.3097 42.33 24.5197 42.2 24.4797C41.5598 24.1581 40.9476 23.7835 40.37 23.3597C40.3325 23.3056 40.3067 23.2442 40.2944 23.1795C40.2821 23.1148 40.2835 23.0482 40.2986 22.9841C40.3137 22.92 40.3421 22.8597 40.382 22.8073C40.4218 22.7548 40.4723 22.7114 40.53 22.6797Z" fill="black"/>
    <path d="M40.8602 26.7617C42.1733 27.3089 43.4183 28.0069 44.5702 28.8417C44.5702 29.0917 44.5702 29.3417 44.4502 29.3417C44.3302 29.3417 41.0002 27.6817 40.8202 27.5917C40.6402 27.5017 40.6502 26.8017 40.8602 26.7617Z" fill="black"/>
    <path d="M41.0702 29.6797C42.4258 30.3853 43.7086 31.2227 44.9002 32.1797C44.9002 32.4297 44.9802 32.8097 44.8202 32.7597C44.6602 32.7097 41.0302 30.6397 40.8202 30.4297C40.6102 30.2197 40.9402 29.6797 41.0702 29.6797Z" fill="black"/>
    <path d="M40.8998 32.7617C42.262 33.5069 43.5452 34.388 44.7298 35.3917C44.7298 35.6017 44.4798 35.9317 44.4798 35.9317C43.1501 35.2085 41.8584 34.4175 40.6098 33.5617C40.5698 33.3417 40.8998 32.7617 40.8998 32.7617Z" fill="black"/>
    <path d="M39.8604 35.7617C39.8604 35.7617 44.4404 38.7617 44.3604 38.9717C44.2804 39.1817 44.2404 39.5117 44.0704 39.4317C43.9004 39.3517 39.4004 36.6417 39.4004 36.4317C39.4004 36.2217 39.8604 35.7617 39.8604 35.7617Z" fill="black"/>
    <path d="M38.8997 38.2617C40.3245 39.2275 41.6628 40.3149 42.8997 41.5117C42.7644 41.6587 42.6096 41.7865 42.4397 41.8917C42.4397 41.8917 38.4397 38.9717 38.3597 38.7717C38.2797 38.5717 38.6497 38.3017 38.8997 38.2617Z" fill="black"/>
    <path d="M37.3604 40.3008C38.6093 41.0887 39.7577 42.0256 40.7804 43.0908C40.645 43.2378 40.4903 43.3656 40.3204 43.4708C39.124 42.6881 37.9815 41.8262 36.9004 40.8908C36.9716 40.642 37.1365 40.4305 37.3604 40.3008Z" fill="black"/>
    <path d="M28.5302 23.7215C28.8657 23.6959 29.2031 23.7229 29.5302 23.8015C29.5302 23.8015 29.6102 22.3815 29.9102 22.3015C30.2102 22.2215 30.4902 22.3015 30.4902 22.4315C30.4902 22.5615 30.5702 23.6415 30.5702 23.6415C30.5702 23.6415 31.7402 23.0215 31.8602 23.1815C31.9802 23.3415 31.7802 23.9315 31.7802 23.9315C31.7802 23.9315 32.2002 24.1815 32.2002 24.3515C32.1764 24.5027 32.1182 24.6464 32.0302 24.7715C32.0302 24.7715 30.6102 24.5215 30.6102 24.7715C30.727 25.269 30.8807 25.757 31.0702 26.2315L30.4502 26.4815C30.4502 26.4815 29.9502 25.6115 29.8702 25.7715C29.6745 26.049 29.4179 26.2782 29.1202 26.4415C29.0002 26.4415 28.6602 25.9415 28.6602 25.9415C28.6602 25.9415 29.4902 24.8615 29.3702 24.7715C29.2502 24.6815 28.3702 24.4815 28.3702 24.3115C28.3531 24.1022 28.4097 23.8935 28.5302 23.7215Z" fill="#E6E4DB"/>
    <path d="M34.7295 36.4884C34.925 36.4578 35.124 36.4578 35.3195 36.4884C35.3195 36.4884 35.3195 35.6484 35.5395 35.5984C35.7595 35.5484 35.8795 35.5984 35.8795 35.6684C35.8795 35.7384 35.8795 36.3784 35.8795 36.3784C35.8795 36.3784 36.5695 36.0084 36.6395 36.1084C36.7095 36.2084 36.6395 36.5484 36.6395 36.5484C36.6395 36.5484 36.8895 36.6984 36.8895 36.7984C36.8752 36.8881 36.8411 36.9735 36.7895 37.0484C36.7895 37.0484 35.9995 36.9984 35.9995 37.0984C36.0681 37.3913 36.1583 37.6788 36.2695 37.9584L35.8995 38.1084C35.8995 38.1084 35.5995 37.5884 35.5595 37.6884C35.444 37.8498 35.2936 37.9831 35.1195 38.0784C35.0495 38.0784 34.8495 37.7784 34.8495 37.7784C34.8495 37.7784 35.3395 37.1384 35.2695 37.0884C35.1995 37.0384 34.6495 36.9184 34.6495 36.8184C34.6393 36.7026 34.6674 36.5866 34.7295 36.4884Z" fill="#E6E4DB"/>
    <path d="M23.1795 40.0896C23.3495 39.9696 23.5595 39.7596 23.7595 39.8796C23.9595 39.9996 24.1395 40.9596 24.1395 40.9596C24.1395 40.9596 25.0195 40.9596 25.1395 41.1696C25.1888 41.4171 25.1888 41.672 25.1395 41.9196H24.4695L24.5995 42.8396H24.1795L23.5995 42.0496C23.5995 42.0496 23.2695 42.6296 23.1395 42.5896C22.894 42.4505 22.6569 42.2969 22.4295 42.1296L23.0995 41.4596C23.0995 41.4596 22.2695 41.2896 22.2695 41.0396C22.2695 40.7896 22.2695 40.4996 22.4395 40.5396C22.6095 40.5796 23.0695 40.7896 23.1095 40.6696C23.1495 40.5496 23.1795 40.0896 23.1795 40.0896Z" fill="#E6E4DB"/>
    <path d="M27.9196 32.5888C28.0896 32.5088 28.7996 32.1688 28.7996 32.2988C28.7996 32.4288 28.7196 33.0888 29.0096 33.0888C29.2996 33.0888 30.1396 33.0088 30.1396 33.1688C30.1396 33.3288 30.4296 33.6688 30.1396 33.7088C29.8496 33.7488 29.1396 33.8788 29.1396 33.8788L29.2696 34.8788H28.7696C28.5196 34.8788 28.2696 33.9588 28.2696 33.9588C28.2696 33.9588 27.5596 33.7888 27.5596 33.6688C27.5596 33.5488 27.5596 33.2488 27.5596 33.2488H27.9396L27.9196 32.5888Z" fill="#E6E4DB"/>
    <path d="M35.6901 28.0498C35.8601 27.9698 36.5701 27.6298 36.5701 27.7598C36.5701 27.8898 36.4901 28.5498 36.7801 28.5498C37.0701 28.5498 37.9101 28.4698 37.9101 28.6298C37.9101 28.7898 38.2001 29.1298 37.9101 29.1698C37.6201 29.2098 36.9101 29.3398 36.9101 29.3398L37.0401 30.3398H36.5401C36.2901 30.3398 36.0401 29.4198 36.0401 29.4198C36.0401 29.4198 35.3301 29.2498 35.3301 29.1298C35.3301 29.0098 35.3301 28.7098 35.3301 28.7098H35.7101L35.6901 28.0498Z" fill="#E6E4DB"/>
    <path d="M29.3998 39.1984C29.5698 39.1184 30.0698 39.0784 30.1498 39.2784C30.2298 39.4784 30.8198 39.7784 30.8198 39.7784L31.3998 40.9984L31.0298 41.3784C31.0298 41.3784 30.3598 41.8384 30.2798 41.6684C30.1706 41.4917 30.0469 41.3244 29.9098 41.1684L29.5398 41.7084L28.7498 41.3784C28.7498 41.3784 28.4998 40.7084 28.7498 40.5084C28.9998 40.3084 29.2898 40.4284 29.2498 40.1784C29.2167 39.8443 29.2683 39.5073 29.3998 39.1984Z" fill="#E6E4DB"/>
    <path d="M14.4804 42.7188C14.7004 42.8688 15.8104 44.1388 16.4804 44.7188C16.7948 45.0052 17.129 45.2691 17.4804 45.5087C17.4804 45.5087 15.9404 48.0487 15.6904 48.0087C14.7438 47.4472 13.8875 46.746 13.1504 45.9287C13.4277 44.7973 13.8762 43.7148 14.4804 42.7188Z" fill="#D0E6F3"/>
    <path d="M18.0695 45.6383C18.1895 45.5483 18.5695 45.7683 18.4895 45.8883C18.4095 46.0083 16.9495 49.0583 16.8195 49.0583C16.6895 49.0583 16.1995 48.9783 16.3195 48.8083C16.4395 48.6383 17.8995 45.7583 18.0695 45.6383Z" fill="#D54F46"/>
    <path d="M19.0702 46.5117L19.4902 46.7617C19.0619 47.8962 18.5471 48.9961 17.9502 50.0517C17.7802 49.9717 17.4902 49.8817 17.4902 49.7617C17.4902 49.6417 19.0702 46.5117 19.0702 46.5117Z" fill="#D54F46"/>
    <path d="M20.1502 47.0489C22.5942 48.3442 25.305 49.0561 28.0702 49.1289C32.9002 49.3389 34.6102 49.2589 38.8602 47.1289C41.2802 46.0327 43.4823 44.5082 45.3602 42.6289C45.8107 42.1718 46.2991 41.7536 46.8202 41.3789C46.8202 41.3789 48.4902 45.7089 48.4002 45.8789C48.272 46.0442 48.1164 46.1862 47.9402 46.2989C47.4203 45.2805 46.8218 44.3042 46.1502 43.3789C45.9402 43.3789 45.4802 44.0889 45.4802 44.0889C45.4802 44.0889 47.1502 46.5489 46.9802 46.7989C46.6252 47.0997 46.2317 47.352 45.8102 47.5489C45.4132 46.6998 44.9378 45.8896 44.3902 45.1289C44.1402 45.0489 43.4702 45.5489 43.5602 45.7589C43.6502 45.9689 45.1002 48.2189 45.1002 48.2189C45.1002 48.2189 44.2702 48.9689 44.1002 48.8889C43.9302 48.8089 42.8902 46.7189 42.7302 46.7189C42.5702 46.7189 42.0602 47.2989 42.0602 47.2989C42.0602 47.2989 43.6002 49.2989 43.4402 49.4689L42.6902 50.0489L41.2702 47.9289C41.2702 47.9289 40.6502 48.1789 40.6502 48.3489C40.6502 48.5189 42.1102 50.7289 42.0302 50.8489C41.9502 50.9689 39.5702 52.8489 34.2802 53.4789C28.9902 54.1089 25.6602 53.6089 22.7402 52.6489C19.8202 51.6889 18.7402 50.7789 18.6602 50.6489C18.9887 49.386 19.4901 48.1746 20.1502 47.0489Z" fill="#D0E6F3"/>
</svg>
