<svg width="53" height="11" viewBox="0 0 53 11" fill="none" xmlns="http://www.w3.org/2000/svg">
    <path d="M0.780141 10.8552C0.756141 10.1592 0.744141 9.37519 0.744141 8.50319C0.744141 7.68719 0.756141 6.82319 0.780141 5.91119C0.804141 4.99919 0.844141 4.07119 0.900141 3.12719C0.956141 2.18319 1.02414 1.26319 1.10414 0.367188L3.19214 0.403188C3.12014 0.963188 3.05614 1.53519 3.00014 2.11919C2.95214 2.69519 2.91214 3.27519 2.88014 3.85919C3.21614 3.62719 3.62014 3.35919 4.09214 3.05519C4.57214 2.74319 5.08414 2.43119 5.62814 2.11919C6.17214 1.79919 6.71614 1.49519 7.26014 1.20719C7.81214 0.919187 8.32814 0.675187 8.80814 0.475188L9.39614 2.51519C8.90814 2.71519 8.41614 2.93519 7.92014 3.17519C7.43214 3.41519 6.96414 3.65519 6.51614 3.89519C6.07614 4.12719 5.68414 4.35119 5.34014 4.56719C4.99614 4.77519 4.72414 4.95919 4.52414 5.11919C4.32414 5.27119 4.22414 5.38319 4.22414 5.45519C4.22414 5.55919 4.38014 5.73519 4.69214 5.98319C5.00414 6.23119 5.42814 6.52319 5.96414 6.85919C6.50014 7.19519 7.10814 7.54719 7.78814 7.91519C8.47614 8.28319 9.18814 8.64319 9.92414 8.99519L8.80814 10.8432C7.89614 10.3712 7.05614 9.89919 6.28814 9.42719C5.52814 8.94719 4.84814 8.49519 4.24814 8.07119C3.65614 7.64719 3.16414 7.28319 2.77214 6.97919C2.77214 7.27519 2.77214 7.57119 2.77214 7.86719C2.77214 8.40319 2.77614 8.92319 2.78414 9.42719C2.80014 9.92319 2.81614 10.3872 2.83214 10.8192L0.780141 10.8552Z" fill="black"/>
    <path d="M13.7483 10.9512C13.1483 10.9512 12.6043 10.7952 12.1163 10.4832C11.6283 10.1792 11.2403 9.76719 10.9523 9.24719C10.6723 8.71919 10.5323 8.13119 10.5323 7.48319C10.5323 6.87519 10.6443 6.32719 10.8683 5.83919C11.0923 5.34319 11.3963 4.91919 11.7803 4.56719C12.1723 4.21519 12.6163 3.94719 13.1123 3.76319C13.6083 3.57119 14.1283 3.47519 14.6723 3.47519C15.1283 3.47519 15.5763 3.53919 16.0163 3.66719C16.0483 3.49919 16.0763 3.33119 16.1003 3.16319L18.1523 3.51119C18.0963 3.66319 18.0403 3.89119 17.9843 4.19519C17.9283 4.49919 17.8803 4.83919 17.8403 5.21519C17.8083 5.59119 17.7803 5.96719 17.7563 6.34319C17.7323 6.71919 17.7203 7.05919 17.7203 7.36319C17.7203 7.61119 17.7363 7.85519 17.7683 8.09519C17.8083 8.32719 17.8883 8.51919 18.0083 8.67119C18.1283 8.81519 18.3123 8.88719 18.5603 8.88719H18.7283L18.4283 10.9752C17.9003 10.9752 17.4643 10.8832 17.1203 10.6992C16.7763 10.5232 16.5003 10.2832 16.2923 9.97919C15.9483 10.3632 15.5563 10.6192 15.1163 10.7472C14.6763 10.8832 14.2203 10.9512 13.7483 10.9512ZM12.5003 7.72319C12.5403 8.10719 12.6963 8.41519 12.9683 8.64719C13.2483 8.87119 13.6003 8.98319 14.0243 8.98319C14.4323 8.98319 14.7723 8.87519 15.0443 8.65919C15.3163 8.43519 15.5403 8.13119 15.7163 7.74719C15.7083 7.61919 15.7043 7.48719 15.7043 7.35119C15.7043 7.07119 15.7123 6.78319 15.7283 6.48719C15.7443 6.19119 15.7643 5.89919 15.7883 5.61119C15.4523 5.48319 15.1003 5.41919 14.7323 5.41919C14.3003 5.41919 13.9123 5.50719 13.5683 5.68319C13.2323 5.85119 12.9683 6.08719 12.7763 6.39119C12.5843 6.69519 12.4883 7.04719 12.4883 7.44719C12.4883 7.49519 12.4883 7.54319 12.4883 7.59119C12.4883 7.63919 12.4923 7.68319 12.5003 7.72319Z" fill="black"/>
    <path d="M19.4785 10.9392C19.4705 10.8192 19.4625 10.6192 19.4545 10.3392C19.4465 10.0672 19.4385 9.73919 19.4305 9.35519C19.4225 8.97119 19.4185 8.55919 19.4185 8.11919C19.4185 7.67119 19.4185 7.22319 19.4185 6.77519C19.4185 6.27919 19.4185 5.80719 19.4185 5.35919C19.4265 4.91119 19.4305 4.52319 19.4305 4.19519C19.4385 3.86719 19.4425 3.63119 19.4425 3.48719L21.4705 3.45119C21.4545 3.67519 21.4425 3.94719 21.4345 4.26719C21.6425 3.98719 21.8825 3.76719 22.1545 3.60719C22.4265 3.44719 22.7385 3.36719 23.0905 3.36719C23.5145 3.36719 23.8625 3.49119 24.1345 3.73919C24.4145 3.98719 24.6425 4.31119 24.8185 4.71119C25.3945 3.81519 26.1025 3.36719 26.9425 3.36719C27.4145 3.36719 27.8025 3.47119 28.1065 3.67919C28.4185 3.87919 28.6625 4.15119 28.8385 4.49519C29.0145 4.83919 29.1425 5.22719 29.2225 5.65919C29.3105 6.09119 29.3665 6.53519 29.3905 6.99119C29.4145 7.44719 29.4265 7.88719 29.4265 8.31119C29.4265 8.81519 29.4185 9.27519 29.4025 9.69119C29.3865 10.1072 29.3825 10.5032 29.3905 10.8792H27.3145C27.3145 10.6872 27.3145 10.4432 27.3145 10.1472C27.3145 9.85919 27.3145 9.56719 27.3145 9.27119C27.3225 8.96719 27.3265 8.70719 27.3265 8.49119C27.3265 8.26719 27.3265 8.13519 27.3265 8.09519C27.3265 7.61519 27.3145 7.16319 27.2905 6.73919C27.2665 6.31519 27.2065 5.97119 27.1105 5.70719C27.0145 5.44319 26.8585 5.31119 26.6425 5.31119C26.4345 5.31119 26.2505 5.41119 26.0905 5.61119C25.9305 5.81119 25.7865 6.07119 25.6585 6.39119C25.5385 6.71119 25.4345 7.05119 25.3465 7.41119C25.3625 7.72319 25.3745 8.03519 25.3825 8.34719C25.3905 8.65119 25.3945 8.94719 25.3945 9.23519C25.3945 9.56319 25.3905 9.84719 25.3825 10.0872C25.3825 10.3352 25.3825 10.5992 25.3825 10.8792H23.3665C23.3665 10.2312 23.3625 9.65919 23.3545 9.16319C23.3465 8.66719 23.3305 8.18719 23.3065 7.72319C23.2665 6.89119 23.1785 6.28319 23.0425 5.89919C22.9145 5.50719 22.7345 5.31119 22.5025 5.31119C22.2465 5.31119 22.0305 5.46719 21.8545 5.77919C21.6785 6.08319 21.5345 6.45519 21.4225 6.89519C21.4305 7.53519 21.4465 8.20319 21.4705 8.89919C21.4945 9.59519 21.5265 10.2672 21.5665 10.9152L19.4785 10.9392Z" fill="black"/>
    <path d="M30.4227 10.9392C30.4547 10.2752 30.4787 9.61119 30.4947 8.94719C30.5107 8.28319 30.5187 7.62719 30.5187 6.97919C30.5107 6.38719 30.4987 5.80319 30.4827 5.22719C30.4747 4.64319 30.4547 4.07919 30.4227 3.53519L32.4387 3.47519C32.4467 3.77119 32.4587 4.07519 32.4747 4.38719C32.7307 4.06719 33.0267 3.81119 33.3627 3.61919C33.7067 3.41919 34.0987 3.31919 34.5387 3.31919C34.7067 3.31919 34.9227 3.34319 35.1867 3.39119C35.4507 3.43919 35.7187 3.53119 35.9907 3.66719L35.7627 5.69519C35.5627 5.57519 35.3467 5.49119 35.1147 5.44319C34.8907 5.38719 34.7027 5.35919 34.5507 5.35919C34.0387 5.35919 33.6027 5.59119 33.2427 6.05519C32.8907 6.51119 32.6507 7.14719 32.5227 7.96319C32.5227 8.52319 32.5147 9.05919 32.4987 9.57119C32.4907 10.0752 32.4707 10.5312 32.4387 10.9392H30.4227Z" fill="black"/>
    <path d="M39.4944 10.9512C38.8944 10.9512 38.3504 10.7952 37.8624 10.4832C37.3744 10.1792 36.9864 9.76719 36.6984 9.24719C36.4184 8.71919 36.2784 8.13119 36.2784 7.48319C36.2784 6.87519 36.3904 6.32719 36.6144 5.83919C36.8384 5.34319 37.1424 4.91919 37.5264 4.56719C37.9184 4.21519 38.3624 3.94719 38.8584 3.76319C39.3544 3.57119 39.8744 3.47519 40.4184 3.47519C40.8744 3.47519 41.3224 3.53919 41.7624 3.66719C41.7944 3.49919 41.8224 3.33119 41.8464 3.16319L43.8984 3.51119C43.8424 3.66319 43.7864 3.89119 43.7304 4.19519C43.6744 4.49919 43.6264 4.83919 43.5864 5.21519C43.5544 5.59119 43.5264 5.96719 43.5024 6.34319C43.4784 6.71919 43.4664 7.05919 43.4664 7.36319C43.4664 7.61119 43.4824 7.85519 43.5144 8.09519C43.5544 8.32719 43.6344 8.51919 43.7544 8.67119C43.8744 8.81519 44.0584 8.88719 44.3064 8.88719H44.4744L44.1744 10.9752C43.6464 10.9752 43.2104 10.8832 42.8664 10.6992C42.5224 10.5232 42.2464 10.2832 42.0384 9.97919C41.6944 10.3632 41.3024 10.6192 40.8624 10.7472C40.4224 10.8832 39.9664 10.9512 39.4944 10.9512ZM38.2464 7.72319C38.2864 8.10719 38.4424 8.41519 38.7144 8.64719C38.9944 8.87119 39.3464 8.98319 39.7704 8.98319C40.1784 8.98319 40.5184 8.87519 40.7904 8.65919C41.0624 8.43519 41.2864 8.13119 41.4624 7.74719C41.4544 7.61919 41.4504 7.48719 41.4504 7.35119C41.4504 7.07119 41.4584 6.78319 41.4744 6.48719C41.4904 6.19119 41.5104 5.89919 41.5344 5.61119C41.1984 5.48319 40.8464 5.41919 40.4784 5.41919C40.0464 5.41919 39.6584 5.50719 39.3144 5.68319C38.9784 5.85119 38.7144 6.08719 38.5224 6.39119C38.3304 6.69519 38.2344 7.04719 38.2344 7.44719C38.2344 7.49519 38.2344 7.54319 38.2344 7.59119C38.2344 7.63919 38.2384 7.68319 38.2464 7.72319Z" fill="black"/>
    <path d="M45.3206 10.8672C45.2966 10.1632 45.2766 9.51119 45.2606 8.91119C45.2526 8.31119 45.2486 7.71919 45.2486 7.13519C45.2486 6.55119 45.2526 5.96719 45.2606 5.38319C45.2766 4.79119 45.3006 4.15919 45.3326 3.48719H47.3606C47.3286 3.84719 47.3006 4.21119 47.2766 4.57919C47.5486 4.23519 47.8726 3.95119 48.2486 3.72719C48.6246 3.49519 49.0686 3.37919 49.5806 3.37919C50.0846 3.37919 50.4966 3.46319 50.8166 3.63119C51.1446 3.79919 51.4006 4.03119 51.5846 4.32719C51.7766 4.62319 51.9126 4.96319 51.9926 5.34719C52.0806 5.72319 52.1366 6.13119 52.1606 6.57119C52.1846 7.00319 52.1966 7.43919 52.1966 7.87919C52.1966 8.35919 52.1886 8.81919 52.1726 9.25919C52.1566 9.69919 52.1406 10.0672 52.1246 10.3632C52.1086 10.6592 52.0966 10.8352 52.0886 10.8912H50.0726C50.0886 10.5632 50.1046 10.2152 50.1206 9.84719C50.1366 9.47119 50.1526 9.10319 50.1686 8.74319C50.1846 8.37519 50.1926 8.04319 50.1926 7.74719C50.1926 6.04319 49.9166 5.19119 49.3646 5.19119C48.9086 5.19119 48.4926 5.39119 48.1166 5.79119C47.7486 6.18319 47.4406 6.67919 47.1926 7.27919C47.1926 7.35919 47.1926 7.43919 47.1926 7.51919C47.1926 7.90319 47.1926 8.30319 47.1926 8.71919C47.2006 9.12719 47.2086 9.51919 47.2166 9.89519C47.2326 10.2632 47.2446 10.5832 47.2526 10.8552L45.3206 10.8672Z" fill="black"/>
</svg>
