<svg width="129" height="129" viewBox="0 0 129 129" fill="none" xmlns="http://www.w3.org/2000/svg">
    <path d="M58.5275 111.321C58.5275 112.583 55.5255 113.603 49.5214 114.379C43.6142 115.156 37.7069 115.544 31.7997 115.544C25.8925 115.544 22.1157 115.204 20.4694 114.525C18.8231 113.845 18 112.777 18 111.321V22.0659C18 19.5421 20.7115 17.3095 26.1346 15.3681C31.6544 13.4267 37.9975 12.456 45.1636 12.456C51.0708 12.456 54.896 13.6209 56.6391 15.9505C57.8981 17.6007 58.5275 19.1053 58.5275 20.4643V44.489H59.6896C59.6896 44.0037 61.1422 39.9753 64.0474 32.4038C69.5673 18.1346 73.5861 11 76.104 11C80.8491 11 87.5311 12.4075 96.1498 15.2225C100.314 16.5815 103.897 18.5714 106.899 21.1923C109.901 23.7161 111.402 26.5311 111.402 29.6374C111.402 31.5788 109.417 35.3645 105.446 40.9945C101.573 46.5275 95.6656 53.9533 87.7248 63.272C89.5647 65.2134 91.8889 67.6886 94.6972 70.6978C97.5056 73.707 101.234 78.2207 105.882 84.239C110.627 90.1603 113 94.3828 113 96.9066C113 99.4304 110.724 102.391 106.173 105.788C101.621 109.089 96.7793 111.807 91.6468 113.942C86.5143 115.981 82.6891 117 80.1713 117C78.525 117 76.2492 114.525 73.344 109.574C70.5357 104.527 67.0979 97.0037 63.0306 87.0055L58.5275 92.3929V111.321Z"
          fill="black"/>
    <style>
        path { fill: #000; }
        @media (prefers-color-scheme: dark) {
        path { fill: #FFF; }
        }
    </style>
</svg>
